Coordinates
version=1
nRows=14
nColumns=40
inDegrees=yes

Units are S.I. units (second, meters, Newtons, ...)
Angles are in degrees.

endheader
time	pelvis_tilt	pelvis_list	pelvis_rotation	pelvis_tx	pelvis_ty	pelvis_tz	hip_flexion_r	hip_adduction_r	hip_rotation_r	knee_angle_r	knee_angle_r_beta	ankle_angle_r	subtalar_angle_r	mtp_angle_r	hip_flexion_l	hip_adduction_l	hip_rotation_l	knee_angle_l	knee_angle_l_beta	ankle_angle_l	subtalar_angle_l	mtp_angle_l	lumbar_extension	lumbar_bending	lumbar_rotation	arm_flex_r	arm_add_r	arm_rot_r	elbow_flex_r	pro_sup_r	wrist_flex_r	wrist_dev_r	arm_flex_l	arm_add_l	arm_rot_l	elbow_flex_l	pro_sup_l	wrist_flex_l	wrist_dev_l
     23.01414286	     -4.10437075	     -5.47200158	      6.51590458	      1.09207702	      0.92361829	      0.46655822	      4.13378195	      2.76699924	    -15.61599124	     14.95887028	     14.95887028	     16.80645608	      3.40171539	     -2.22118979	     30.15731330	     -7.61384656	     -2.21558830	     19.66605812	     19.66605812	      1.92297736	     -6.64959653	      2.40348834	    -10.10048697	      5.50238437	      2.97972905	     35.46856500	    -14.86955091	      7.87996585	     75.99355604	     44.32749843	      0.00000000	      0.00000000	     -1.18125228	    -10.04374205	     -9.04385274	     32.33052873	     46.41205644	      0.00000000	      0.00000000
     23.02828571	     -3.93772993	     -5.52771912	      6.29662841	      1.09358398	      0.92296025	      0.46424410	      3.47612857	      2.71234326	    -15.43626644	     15.04726839	     15.04726839	     17.40804376	      3.68074958	     -1.69562657	     29.49926520	     -7.54377755	     -2.11611967	     20.51854438	     20.51854438	      1.59602213	     -7.77331334	      1.72455949	     -9.92558483	      5.43357825	      3.01717331	     34.67035926	    -14.67700027	      8.39006117	     75.59338126	     44.36369273	      0.00000000	      0.00000000	     -1.16205955	    -10.08826282	     -9.26519743	     32.61048714	     46.43032465	      0.00000000	      0.00000000
     23.04242857	     -3.80072357	     -5.54322933	      6.06472577	      1.09511481	      0.92243987	      0.46177107	      2.87313361	      2.59854052	    -15.14414160	     15.16007567	     15.16007567	     17.77775989	      3.76337891	     -1.76809378	     28.82924356	     -7.47513129	     -2.18866453	     21.23921924	     21.23921924	      1.72604603	     -8.31237920	      1.61915686	     -9.75301160	      5.32584545	      2.97568234	     33.64424239	    -14.41721805	      8.66047016	     75.28971741	     44.36277377	      0.00000000	      0.00000000	     -1.10303218	    -10.18874542	     -9.29333420	     32.63559366	     46.43442189	      0.00000000	      0.00000000
     23.05657143	     -3.63705378	     -5.62119004	      5.90996268	      1.09653147	      0.92202737	      0.45892678	      2.28796053	      2.50409809	    -15.01409817	     15.34213539	     15.34213539	     18.09250326	      3.85057365	     -1.49054169	     28.34286661	     -7.31778979	     -1.64873717	     22.14926968	     22.14926968	      1.90068034	     -9.74390836	      1.69099136	     -9.55546231	      5.29554795	      3.17469396	     32.63455627	    -14.62454030	      9.08824547	     74.52830330	     44.38242779	      0.00000000	      0.00000000	     -0.85827560	    -10.24395107	     -9.37533553	     32.77057833	     46.44530316	      0.00000000	      0.00000000
     23.07071429	     -3.48962755	     -5.57586102	      5.74538197	      1.09779157	      0.92196490	      0.45591927	      1.78825068	      2.24581479	    -14.75125051	     15.63554445	     15.63554445	     18.29738444	      3.88125382	     -1.48522301	     27.76891300	     -7.11675602	     -1.46388264	     22.74532404	     22.74532404	      2.25570362	    -10.25073341	      1.56655557	     -9.49316980	      5.12161478	      3.00121985	     31.38818000	    -14.50790837	      9.39466019	     74.07642353	     44.38502329	      0.00000000	      0.00000000	     -0.74313948	    -10.40771855	     -9.42074187	     32.81723111	     46.45241075	      0.00000000	      0.00000000
     23.08485714	     -3.42570848	     -5.53007867	      5.56324831	      1.09874747	      0.92190975	      0.45272676	      1.68325671	      1.86770964	    -14.55282463	     16.48415519	     16.48415519	     18.55846230	      3.76470507	     -1.40824159	     27.41436105	     -6.83237609	     -1.00850849	     23.40677029	     23.40677029	      2.70587867	    -11.34173001	      1.68256808	     -9.35068815	      4.90157376	      3.14487779	     30.13797625	    -14.89585876	      9.80368436	     73.12806228	     44.40729613	      0.00000000	      0.00000000	     -0.35981042	    -10.49971689	     -9.51011190	     33.03639643	     46.46729245	      0.00000000	      0.00000000
     23.09900000	     -3.24903821	     -5.60952969	      5.46456861	      1.09977584	      0.92246579	      0.44936769	      1.38446423	      1.65769753	    -14.39522526	     17.14402454	     17.14402454	     18.48711293	      3.68116733	     -1.45159979	     26.85013944	     -6.73827012	     -0.75815393	     23.74723005	     23.74723005	      3.29568128	    -11.66201250	      1.51307255	     -9.36416729	      4.89595448	      2.81027556	     28.69230846	    -14.85512098	     10.08706716	     72.58835694	     44.41175169	      0.00000000	      0.00000000	     -0.23749682	    -10.60566902	     -9.54399052	     33.09491472	     46.47304882	      0.00000000	      0.00000000
     23.11314286	     -3.27986775	     -5.43383998	      5.25735970	      1.10013957	      0.92270192	      0.44585118	      2.04975506	      0.93033173	    -14.07695566	     19.20164234	     19.20164234	     18.54738819	      3.10855588	     -1.86724261	     26.63360224	     -6.36910162	     -0.65254178	     24.25791689	     24.25791689	      3.88447332	    -12.24068133	      1.54588076	     -9.19923319	      4.58586624	      3.04551936	     27.26356623	    -15.37185593	     10.43856962	     71.36974760	     44.44270826	      0.00000000	      0.00000000	      0.31143742	    -10.72419912	     -9.63419356	     33.42087243	     46.49089995	      0.00000000	      0.00000000
     23.12728571	     -3.29816713	     -5.41977547	      5.04947728	      1.10046324	      0.92325391	      0.44244421	      2.82621487	      0.37531315	    -13.78803917	     21.41257895	     21.41257895	     18.27755691	      2.38628394	     -2.45261347	     26.31724363	     -6.21195141	     -0.63476290	     24.51661028	     24.51661028	      4.59765712	    -12.46701535	      1.54600576	     -9.09541368	      4.38462959	      3.01106770	     25.73591064	    -15.64683903	     10.76775958	     70.20255749	     44.47324973	      0.00000000	      0.00000000	      0.68435160	    -10.81553083	     -9.69581685	     33.62854412	     46.50136508	      0.00000000	      0.00000000
     23.14142857	     -3.29306087	     -5.38325659	      4.80323966	      1.10051685	      0.92390436	      0.43912170	      3.90407750	     -0.25188189	    -13.39772658	     24.16911181	     24.16911181	     17.80158265	      1.40204900	     -3.34550949	     25.97457459	     -6.10127606	     -0.84645107	     24.73682222	     24.73682222	      5.32102546	    -12.40468972	      1.41724599	     -9.04151911	      4.15460577	      2.96978878	     24.21654361	    -15.87985042	     11.03656689	     68.96570724	     44.50793396	      0.00000000	      0.00000000	      1.10544207	    -10.95058197	     -9.74517009	     33.87038418	     46.51092467	      0.00000000	      0.00000000
     23.15557143	     -3.29294111	     -5.33119130	      4.52187397	      1.10031973	      0.92459960	      0.43587347	      5.31074348	     -0.93554888	    -12.90267017	     27.44305814	     27.44305814	     17.03942119	      0.15859145	     -4.47134726	     25.60696115	     -6.02367182	     -1.25547677	     24.88584761	     24.88584761	      6.02882400	    -12.10632589	      1.16619241	     -9.03860546	      3.92788455	      2.90050580	     22.65603811	    -16.06208707	     11.25838133	     67.63999560	     44.54669016	      0.00000000	      0.00000000	      1.55648799	    -11.12260927	     -9.77511344	     34.13994089	     46.51843421	      0.00000000	      0.00000000
     23.16971429	     -3.23515336	     -5.23115667	      4.20315674	      1.09994626	      0.92531421	      0.43282852	      6.93756457	     -1.67973275	    -12.35913339	     31.15427725	     31.15427725	     16.06074214	     -1.27472286	     -5.57050682	     25.13847884	     -5.95664845	     -1.85155138	     24.97757568	     24.97757568	      6.68123622	    -11.66547279	      0.80250068	     -9.12897488	      3.61265013	      2.77196391	     21.12577993	    -16.19459467	     11.44222426	     66.35642512	     44.58353585	      0.00000000	      0.00000000	      2.05949567	    -11.33955117	     -9.78943688	     34.42814248	     46.52549562	      0.00000000	      0.00000000
     23.18385714	     -3.28353124	     -5.14645951	      3.83022535	      1.09935173	      0.92578962	      0.43009225	      8.93705506	     -2.36326932	    -11.65786134	     35.17373843	     35.17373843	     14.78075074	     -2.99518712	     -6.72802689	     24.75261690	     -5.95945434	     -2.62131441	     25.00712161	     25.00712161	      7.31319855	    -10.98367314	      0.31189743	     -9.08326482	      3.28226716	      2.67794171	     19.52806106	    -16.27966172	     11.58443749	     64.86949298	     44.62916660	      0.00000000	      0.00000000	      2.52499406	    -11.60173750	     -9.77482909	     34.71685381	     46.52803030	      0.00000000	      0.00000000
     23.19800000	     -3.23658078	     -5.22118213	      3.44622953	      1.09864363	      0.92633900	      0.42779492	     10.88050425	     -2.64463270	    -10.70323625	     38.96891749	     38.96891749	     12.58663706	     -5.75583241	     -9.16173642	     24.36450854	     -6.30824035	     -3.84155231	     25.21297100	     25.21297100	      7.99768336	     -9.51860477	     -0.69080845	     -9.13175963	      3.11134838	      2.48983256	     18.31997957	    -15.95638332	     11.30985919	     61.98110228	     44.75785475	      0.00000000	      0.00000000	      2.99080745	    -11.95759010	     -9.40872192	     35.02054471	     46.47831513	      0.00000000	      0.00000000
